# xmcd CD database file
#
# Track frame offsets:
#	150
#	25277
#	43332
#	59727
#	76402
#	101700
#	122720
#	136020
#	154540
#	177330
#	193245
#	214077
#	238832
#	258665
#	277022
#	301207
#
# Disc length: 4319 seconds
#
# Revision: 0
# Processed by: cddbd v1.5.2PL0 Copyright (c) Steve Scherf et al.
# Submitted via: CDex 1.70beta2
#
DISCID=ef10dd10
DTITLE=Sarah Vaughn - Jazz Giants
DYEAR=1996
DGENRE=Jazz
TTITLE0=Autumn Leaves
TTITLE1=I Don't Know What Time It Was
TTITLE2=Copacabana
TTITLE3=Dreamer (Viva Sonhando)
TTITLE4=I've Got The World On A String
TTITLE5=Easy Living
TTITLE6=Triste
TTITLE7=A Little Tear (Razao De Viver)
TTITLE8=I Gotta Right To Sing The Blues
TTITLE9=Indian Summer
TTITLE10=I Ain't Got Nothing But The Blues
TTITLE11=Everything But You
TTITLE12=Solitude
TTITLE13=Sophiscated Lady
TTITLE14=Rocks In My Bed
TTITLE15=Mood Indigo
EXTD=YEAR: 1996
EXTT0=
EXTT1=
EXTT2=
EXTT3=
EXTT4=
EXTT5=
EXTT6=
EXTT7=
EXTT8=
EXTT9=
EXTT10=
EXTT11=
EXTT12=
EXTT13=
EXTT14=
EXTT15=
PLAYORDER=
